PathFileType	4	(X/Y/Z)	F:\MotionCapture\20160217\3\Generated_files\EMG_Fprce_test01-Dynamic.trc
DataRate	CameraRate	NumFrames	NumMarkers	Units	OrigDataRate	OrigDataStartFrame	OrigNumFrames
120.00	120.00	       8	39	mm	120.00	356	       569
Frame#	Time	Top.Head			Front.Head			Rear.Head			R.Shoulder			R.Offset			R.Elbow			R.Wrist			L.Shoulder			L.Elbow			L.Wrist			R.ASIS			L.ASIS			V.Sacral			R.Thigh			R.Knee			R.Shank			R.Ankle			R.Heel			R.Toe			L.Thigh			L.Knee			L.Shank			L.Ankle			L.Heel			L.Toe			R1			R2			R3			R4			R5			R6			R7			L1			L2			L3			L4			L5			L6			L7			V_Mid_ASIS			V_Pelvis_Origin			V_R.Hip_JC			V_L.Hip_JC			V_R.Knee_JC			V_L.Knee_JC			V_R.Ankle_JC			V_L.Ankle_JC			V_Mid_Hip			V_Mid_Shoulder			V_R.Hand			V_L.Hand			V_R.Toe_Offset_Static			V_L.Toe_Offset_Static			V_R.Toe_Offset			V_L.Toe_Offset			
		X1	Y1	Z1	X2	Y2	Z2	X3	Y3	Z3	X4	Y4	Z4	X5	Y5	Z5	X6	Y6	Z6	X7	Y7	Z7	X8	Y8	Z8	X9	Y9	Z9	X10	Y10	Z10	X11	Y11	Z11	X12	Y12	Z12	X13	Y13	Z13	X14	Y14	Z14	X15	Y15	Z15	X16	Y16	Z16	X17	Y17	Z17	X18	Y18	Z18	X19	Y19	Z19	X20	Y20	Z20	X21	Y21	Z21	X22	Y22	Z22	X23	Y23	Z23	X24	Y24	Z24	X25	Y25	Z25	X26	Y26	Z26	X27	Y27	Z27	X28	Y28	Z28	X29	Y29	Z29	X30	Y30	Z30	X31	Y31	Z31	X32	Y32	Z32	X33	Y33	Z33	X34	Y34	Z34	X35	Y35	Z35	X36	Y36	Z36	X37	Y37	Z37	X38	Y38	Z38	X39	Y39	Z39	

356	2.958	-493.69205	118.94682	1702.93982	-609.90723	105.58202	1628.05481	-389.31406	116.99911	1626.71826	-439.65311	297.87939	1391.15393	-321.59885	19.29591	1259.27173	-329.97705	397.22217	1092.14111	-367.65778	436.48294	835.11975	-493.66345	-104.98415	1405.62732	-565.43488	-202.87183	1088.90820	-765.64789	-156.22557	933.87360				-513.44476	-62.20096	919.47467	-290.85175	84.55202	924.32379	-662.39703	251.65668	494.38718	-685.53271	216.36197	622.84406							-626.24017	180.64119	52.77660	-827.58484	223.29764	83.44743	-499.95456	0.33134	589.22162	-374.94376	-47.93845	444.31702	-352.99899	34.70466	308.93762	-237.57658	-21.10623	58.92682	-162.97287	31.67176	49.93740	-370.53030	-14.46461	37.52377	-866.17267	208.77538	100.91315	-831.60797	187.91760	90.80634	-740.11420	157.06602	91.33431	-673.57513	152.83173	63.83829	-656.60840	226.34145	56.24661	-735.97650	255.52231	57.24910	-797.71185	260.89545	66.53408	-412.35428	10.70753	31.40362	-381.47055	25.40371	40.29495	-284.97305	68.12839	41.47980	-202.59998	64.67580	45.23901	-194.41144	-7.61862	45.09174	-265.84445	-33.96199	32.70240	-328.99225	-47.29378	36.35019																																																	-707.94641	179.74176	265.60291	-688.30029	246.10417	90.36649	-514.03650	226.94670	923.04401	-139.77206	48.64930	66.46049	-584.88660	71.99644	-45.89225	
357	2.967	-505.76767	119.96307	1700.20874	-622.26184	106.74917	1625.14917	-401.70514	118.54368	1624.19836	-451.68573	299.03549	1388.75269	-333.27655	20.49603	1256.58447	-338.77701	397.92691	1090.81787	-374.12247	437.98563	833.50519	-505.56039	-103.87236	1402.55432	-581.15948	-200.52513	1086.67932	-784.18652	-151.03407	936.21210				-524.03064	-62.49185	916.10486	-302.62653	85.68167	922.28174	-676.16547	251.06854	492.17694	-696.05023	215.93462	618.06927							-658.36188	185.44164	48.20391	-857.81812	226.07397	89.43569	-508.06128	-0.50918	586.65820	-380.63455	-47.80651	442.99255	-357.13666	35.01995	307.94156	-237.44110	-20.79466	59.69785	-163.61124	31.98401	51.29694	-370.66791	-14.68839	37.51631	-895.85077	210.92365	108.66057	-861.81213	190.61742	96.76348	-769.93823	160.33813	92.09649	-704.41022	157.02109	61.54018	-688.35730	230.69757	53.87207	-768.05292	259.58170	59.37442	-829.53186	264.22794	71.25082	-412.95627	10.13545	31.45823	-381.62009	25.26300	40.29970	-285.63419	67.91414	41.74811	-203.19868	65.18739	46.39902	-195.03270	-7.02902	46.24097	-265.70453	-33.72528	32.74166	-328.94885	-47.29537	36.25889																																																	-861.79144	190.37477	96.49544	-730.87201	180.30589	265.77383	-719.25946	249.54706	90.02538	-526.83698	227.63933	920.18915	-585.43402	71.57366	-46.02856	
358	2.975	-517.86713	121.36427	1697.24011	-634.08313	107.90101	1622.20801	-413.84818	119.77492	1621.49060	-463.13553	300.32147	1386.26880	-344.38379	21.68763	1253.85034	-347.94400	399.20578	1089.48706	-380.56296	438.60626	831.65588	-517.70789	-102.54449	1399.53918	-596.83075	-197.67831	1084.04822	-802.50763	-145.69423	938.83563				-536.65259	-61.00607	914.07678	-314.37402	87.21323	919.73865	-688.06952	249.50905	489.75595	-706.14850	214.43932	612.67346							-688.20447	189.39839	46.12045	-886.19781	229.01047	95.70289	-516.05743	-0.81844	583.95422	-386.10339	-47.59876	441.84543	-361.63879	35.23009	307.17917	-237.30727	-20.54915	60.66759	-163.75000	32.56198	53.24305	-370.82809	-14.76805	37.32014	-919.06854	211.67506	118.63742	-890.02045	193.27361	102.18555	-798.44165	163.41089	93.42720	-733.91791	160.98108	60.10704	-718.81458	234.56268	53.17084	-798.07013	263.23517	62.35889	-858.74988	267.70114	76.74285	-412.98779	10.11245	30.96210	-381.74341	25.13257	40.30087	-286.29272	67.87608	42.19107	-203.60298	65.73818	47.85273	-195.12564	-6.60745	47.30050	-265.54047	-33.54327	32.76201	-329.44394	-47.75671	35.55598																																																	-750.59363	182.41963	265.24506	-539.46515	228.51291	917.20898	-746.88788	254.04628	91.49131	-1022.87872	148.83467	69.61842	-585.80670	71.35104	-46.35069	
359	2.983	-530.09222	122.77434	1694.51050	-646.34857	108.97095	1619.38403	-425.91388	121.19231	1618.71216	-475.09979	301.73541	1383.71692	-355.86719	22.98508	1251.21997	-357.04587	400.65353	1088.05713	-387.51892	440.10062	829.93323	-529.54999	-100.93519	1396.32520	-611.98663	-195.47633	1081.49695	-819.99695	-140.39667	941.15417				-548.14233	-60.18709	911.49518	-326.70081	88.33158	916.91931	-699.58368	248.71043	487.73862	-715.92206	212.82434	607.43909							-717.07520	193.14642	45.02563	-912.98004	232.28000	101.51693	-523.97913	-1.39982	581.45557	-392.39359	-47.56993	441.09348	-365.86264	35.38757	306.25751	-237.30003	-20.46358	61.97523	-164.26820	33.37604	54.81488	-370.78964	-14.84051	37.14932	-948.98932	214.93974	123.84902	-916.71075	196.06970	107.88650	-825.85254	166.29381	95.18059	-762.43884	164.14139	58.96080	-747.50250	237.51753	52.71058	-826.17651	265.52811	64.90652	-886.44116	270.82217	82.55145	-413.16507	9.82561	30.87871	-381.83636	25.05019	40.30196	-286.54086	68.10028	42.80495	-203.92596	65.96363	49.23610	-194.86115	-6.17055	48.91265	-265.42462	-33.39783	32.83250	-329.02206	-47.41620	35.24862																																																	-771.79340	183.24748	265.80594	-551.46924	229.10915	914.31378	-774.32312	256.72388	92.39984	-586.22009	71.35979	-46.54189	
360	2.992	-542.33728	124.07391	1691.89746	-658.39233	110.36095	1616.62830	-438.12616	122.80689	1616.05591	-487.06674	303.05157	1381.26013	-367.50244	24.60266	1248.50891	-366.79437	401.87927	1086.37720	-394.53497	441.90216	828.13831	-541.31598	-99.57766	1393.23157	-626.08307	-192.84767	1079.14307	-837.91095	-135.44920	943.37396				-559.57056	-59.29725	908.84418	-338.71951	89.99759	914.41785	-710.98126	248.28279	485.35434	-725.49457	210.98729	602.69623							-747.32269	196.05649	41.28246	-938.32825	235.34787	107.85162	-532.99103	-2.19386	579.05414	-398.70657	-47.42986	440.01456	-369.48837	34.68595	304.85303	-238.31825	-20.17658	63.11526	-164.82024	33.92746	57.62005	-370.86682	-14.83166	37.13621	-974.89966	219.78117	130.35918	-942.07178	198.81985	114.02792	-851.27264	168.69890	96.94396	-789.82660	166.52522	58.95721	-774.50647	239.95212	52.49094	-852.27087	267.75934	68.04801	-912.26740	273.90686	88.01847	-413.38358	9.40765	30.61879	-381.90997	24.88876	40.32969	-287.24210	68.17841	43.95245	-205.08945	66.60959	51.50063	-195.09900	-6.04907	51.00663	-265.44321	-33.16134	33.28267	-329.03024	-47.40834	35.08272																																																	-790.43396	184.74336	265.89145	-391.33527	-4.07095	34.66182	-565.76660	230.05154	911.44183	-799.75446	258.55627	92.81384	
361	3.000	-554.80719	125.52555	1689.59082	-670.71722	111.83700	1613.93201	-450.17484	124.58913	1613.93628	-498.95676	304.89728	1378.81604	-378.80130	26.16961	1245.77502	-376.33960	403.31967	1084.78271	-402.61740	442.94751	826.14539	-553.19775	-97.93517	1390.23071	-640.78668	-189.96301	1076.40076	-854.46545	-130.71777	945.20435				-570.90588	-58.89909	906.46106	-351.46161	91.87497	911.45435	-721.73407	248.36470	483.05814	-734.64484	208.94926	598.60999							-773.78741	196.98103	39.76173	-962.52588	238.17094	113.95464	-541.64856	-2.87975	577.03363	-405.31564	-47.27861	439.04883	-375.11951	34.84482	304.42206	-238.20789	-20.36572	65.37758	-165.09814	34.48571	60.38649	-371.07813	-14.98858	37.23719	-997.09778	222.39856	137.87886	-966.11121	201.69954	120.17083	-876.04926	170.57086	99.60583	-815.83844	168.09180	58.77439	-800.49554	241.73538	52.01261	-877.73120	270.39807	71.25051	-936.22534	276.83432	93.98429	-413.56683	9.22380	30.47353	-381.98636	24.78988	40.34115	-287.70410	68.15115	45.00653	-205.98953	66.97007	53.98591	-196.28235	-5.60772	53.38292	-265.73825	-33.00052	33.89155	-329.04507	-47.35133	35.01581																																																	-808.28552	185.87029	266.01691	-391.04068	-4.37625	34.85210	-578.83258	230.91164	908.85553	-823.55322	260.67984	94.34530	
362	3.008	-567.08069	127.07034	1687.19006	-682.80420	113.19704	1611.51538	-462.48221	126.10200	1611.65625	-510.98886	306.72644	1376.54089	-391.12616	27.95862	1243.41345	-386.44897	404.70325	1083.34033	-410.81778	443.36435	824.41278	-565.77234	-96.44863	1387.39709	-655.51996	-187.27933	1074.07202	-870.73590	-126.17719	946.76923				-582.80902	-58.39309	903.91229	-363.60333	93.89901	908.69525	-732.63782	248.66338	480.39246	-743.73999	207.05679	594.38953							-799.23132	198.08200	38.60266	-984.00543	241.22418	119.66608	-551.72888	-4.17405	574.90656	-412.52441	-47.52205	438.61557	-380.75034	34.73410	304.04761	-239.16582	-20.37892	67.73043	-166.39044	35.18563	63.66861	-370.97433	-15.13548	37.17574	-1018.14368	225.47893	144.66278	-987.95105	204.77705	126.02425	-898.67566	172.59871	102.15707	-840.32086	169.20564	59.73527	-824.04297	243.07722	51.79605	-900.79840	272.29593	73.41112	-957.77411	279.17188	97.55865	-413.89395	9.00766	30.41674	-382.07889	24.69659	40.27332	-288.53491	68.27839	46.25736	-206.47557	67.32452	56.69139	-196.25473	-4.81308	55.61697	-266.25040	-33.18518	34.86567	-329.08951	-47.45626	34.93185																																																	-825.14929	186.89116	266.17630	-390.94324	-4.46854	34.84824	-592.26361	231.70293	906.07092	-846.06500	261.86072	94.68217	
363	3.017	-579.40143	128.98486	1684.87891	-695.38605	114.68530	1609.19995	-475.30032	127.79555	1609.59460	-523.15277	308.60779	1374.42456	-403.54922	29.60458	1241.01892	-396.75656	406.21848	1081.81970	-419.52563	444.50201	822.37000	-578.09161	-94.89786	1384.97424	-669.36426	-184.47968	1071.98145	-886.51135	-121.77069	948.48309				-594.69080	-58.37222	901.63141	-375.77988	96.40432	906.42267	-743.50348	248.95314	477.95288	-753.64569	205.42657	591.23755							-820.34802	198.18831	38.01729	-1003.38074	243.21404	123.94720	-561.00629	-4.64719	572.63416	-420.16794	-47.50245	438.21149	-386.55975	34.37984	303.31384	-238.44278	-20.94585	71.00352	-167.47565	35.58184	67.42667	-371.50708	-15.14818	37.32046	-1037.45459	227.92822	150.31055	-1007.92877	207.31837	130.89523	-919.91711	174.23785	104.51716	-861.94714	170.04541	59.95911	-846.04517	242.90297	51.38818	-921.00525	273.22589	75.31977	-977.60382	281.12387	101.38750	-414.21939	8.74330	30.33943	-382.21985	24.55528	40.23667	-289.29510	68.05525	47.75489	-207.52919	67.42165	59.78065	-197.59602	-4.50084	58.60868	-266.24402	-33.14960	35.39944	-329.11884	-47.50008	34.73055																																																	-840.58246	188.62314	265.98578	-390.73105	-4.63196	35.00503	-605.77393	232.29434	903.56012	-866.06702	263.12738	95.11984	-768.13904	83.27859	11.01825	
